<?xml version="1.0"?>
<svg xmlns="http://www.w3.org/2000/svg" viewBox="0 0 512 512" width="512" height="512"><g id="Outline"><path d="M400,304a95.658,95.658,0,0,0-22.445,2.758L359.676,248H416a16.03,16.03,0,0,1-16,16H384v16h16a32.036,32.036,0,0,0,32-32V208a8,8,0,0,0-7.387-7.977L328,192.594v-48.8A39.607,39.607,0,0,0,352,152a40.047,40.047,0,0,0,40-40V72a56,56,0,0,0-112,0,7.46,7.46,0,0,0,.224,1.107,7.669,7.669,0,0,0,.014.831l5.544,22.174a236.718,236.718,0,0,0-94.438,21.521l-15.09,7.023A83.192,83.192,0,0,0,128,200s.1,16.539.133,16.819a48.087,48.087,0,0,0,15.578,33.009l33.471,30.425L155.11,314.344A95.96,95.96,0,1,0,206.555,416h10.581A31.967,31.967,0,0,0,248,440a31.208,31.208,0,0,0,3.166-.313l5.127,18.454A8,8,0,0,0,264,464h56a7.874,7.874,0,0,0,6.024-2.887A95.981,95.981,0,1,0,400,304ZM300,112a12.013,12.013,0,0,1,12,12v28H288V124A12.013,12.013,0,0,1,300,112Zm12-16h-9.754l-4-16H312ZM272.64,282.007,274.246,280h32.966a27.42,27.42,0,0,1-4.6,7.992l-22.9,25.844ZM287.046,264l12.31-15.388A27.912,27.912,0,0,1,308.612,264Zm-12.112-41.136-56.515-14.5-2.747-3.533-.611-4.965.474-7.863H272v16A39.682,39.682,0,0,0,274.934,222.864Zm9.389,18.925L266.554,264h-4.86l-5.378-6.914L234.471,229ZM238.758,395.021,240.141,400h-5.962A16.234,16.234,0,0,1,238.758,395.021Zm-7.051-85.162a8.024,8.024,0,0,0-2.324-3.781L223.02,300.3l26.23-26.235,7.332,9.43L286.027,416H261.191ZM284,333.125l30.676-34.617A43.813,43.813,0,0,0,324.07,280h19l-55.807,67.8ZM347.819,264H324.8c-.125-.915-.207-1.829-.39-2.742A43.726,43.726,0,0,0,319.337,248H342.95ZM416,215.406V232H312a24.027,24.027,0,0,1-24-24V168h24v32a8,8,0,0,0,7.387,7.977ZM376,112a24,24,0,0,1-48,0V80h16V96h16V80h16ZM336,32A40.069,40.069,0,0,1,375.2,64h-78.39A40.069,40.069,0,0,1,336,32ZM182.977,139.172l15.093-7.024a220.747,220.747,0,0,1,76.4-19.53A27.739,27.739,0,0,0,272,124v52H208a8,8,0,0,0-7.984,7.523L199.5,192h-55.02A67.2,67.2,0,0,1,182.977,139.172ZM144,214.305V208h55.941l.118.977a7.987,7.987,0,0,0,1.625,3.937l37.664,48.422-14.09,14.094-14.092,14.091-56.689-51.537A32.078,32.078,0,0,1,144,214.305ZM112,480a80,80,0,1,1,34.357-152.137l-8.753,13.52A64,64,0,1,0,173.894,416h16.494A80.135,80.135,0,0,1,112,480Zm80-80H176a63.868,63.868,0,0,0-24.669-50.381l8.7-13.441A79.841,79.841,0,0,1,192,400ZM96.973,411.82A7.993,7.993,0,0,0,104,416h53.2a48.082,48.082,0,1,1-28.459-60.928L97.285,403.656A7.981,7.981,0,0,0,96.973,411.82ZM118.707,400l23.914-36.931A47.918,47.918,0,0,1,160,400Zm50.03-77.263,20.446-31.574,1.289,1.171,39.671,89.187A31.623,31.623,0,0,0,217.119,400H208A95.827,95.827,0,0,0,168.737,322.737ZM234.226,416h10.359l2.188,7.876A15.921,15.921,0,0,1,234.226,416ZM312,448H270.082l-4.445-16h27.941L312,444.281Zm-8.889-28.874-11.444-51.5,64.019-77.78,6.653,21.865a95.568,95.568,0,0,0-55.857,109.659ZM400,480a79.949,79.949,0,0,1-32.953-152.814l4.708,15.471a62.853,62.853,0,1,0,15.114-5.29l-4.657-15.3A79.973,79.973,0,1,1,400,480Zm-8.438-127.21a48.01,48.01,0,1,1-15.078,5.41l15.864,52.128,15.3-4.656Z"/></g></svg>
