<svg height="512" viewBox="0 0 64 64" width="512" xmlns="http://www.w3.org/2000/svg"><path d="m6 6h2v2h-2z"/><path d="m10 6h2v2h-2z"/><path d="m14 6h2v2h-2z"/><path d="m61 2h-58a1 1 0 0 0 -1 1v58a1 1 0 0 0 1 1h58a1 1 0 0 0 1-1v-58a1 1 0 0 0 -1-1zm-1 8h-40v-6h40zm-56-6h14v6h-14zm0 56v-48h56v48z"/><path d="m14 46h-6a1 1 0 0 0 -1 1v10a1 1 0 0 0 1 1h6a1 1 0 0 0 1-1v-10a1 1 0 0 0 -1-1zm-1 10h-4v-8h4z"/><path d="m24 42h-6a1 1 0 0 0 -1 1v14a1 1 0 0 0 1 1h6a1 1 0 0 0 1-1v-14a1 1 0 0 0 -1-1zm-1 14h-4v-12h4z"/><path d="m34 38h-6a1 1 0 0 0 -1 1v18a1 1 0 0 0 1 1h6a1 1 0 0 0 1-1v-18a1 1 0 0 0 -1-1zm-1 18h-4v-16h4z"/><path d="m44 34h-6a1 1 0 0 0 -1 1v22a1 1 0 0 0 1 1h6a1 1 0 0 0 1-1v-22a1 1 0 0 0 -1-1zm-1 22h-4v-20h4z"/><path d="m54 30h-6a1 1 0 0 0 -1 1v26a1 1 0 0 0 1 1h6a1 1 0 0 0 1-1v-26a1 1 0 0 0 -1-1zm-1 26h-4v-24h4z"/><path d="m57.242 19.03-3.554-.888-1.788-3.589a1.042 1.042 0 0 0 -1.79 0l-1.793 3.589-3.554.888a1 1 0 0 0 -.45 1.692l2.58 2.478-.865 3.565a1 1 0 0 0 1.419 1.135l3.553-1.782 3.553 1.782a1 1 0 0 0 1.419-1.131l-.865-3.569 2.585-2.477a1 1 0 0 0 -.45-1.692zm-3.934 3.123a1 1 0 0 0 -.28.958l.493 2.031-2.074-1.037a1 1 0 0 0 -.894 0l-2.074 1.037.493-2.031a1 1 0 0 0 -.28-.958l-1.692-1.622 2.243-.561a1 1 0 0 0 .653-.523l1.104-2.211 1.1 2.211a1 1 0 0 0 .653.523l2.247.561z"/><path d="m9.142 40.99c.869-.124 21.45-3.18 35.508-15.231l-1.3-1.518c-13.61 11.664-34.285 14.739-34.492 14.769z"/><path d="m30 14h-24v14h24zm-2 12h-20v-10h20z"/><path d="m10 18h9v2h-9z"/><path d="m21 18h2v2h-2z"/><path d="m10 22h16v2h-16z"/><path d="m32 14h2v10h-2z"/><path d="m32 26h2v2h-2z"/><path d="m6 30h19v2h-19z"/></svg>